<svg xmlns="http://www.w3.org/2000/svg" width="215" height="32" fill="none" xmlns:v="https://vecta.io/nano"><g clip-path="url(#A)"><path d="M94.647 13.77c0-3.476-2.556-5.524-8.285-5.524s-8.589 2.112-8.897 6.204h6.204c.172-1.5.888-1.876 2.624-1.876s2.216.612 2.216 1.396c0 .956-.68 1.328-2.112 1.464l-2.828.24c-3.233.279-5.173 1.135-6.169 2.51v-.054c0-6.237-3.852-9.885-9.445-9.885s-9.305 3.552-9.405 8.983c-.662-3.24-3.387-5.03-8.492-5.879l-2.012-.34c-2.42-.408-3.544-.92-3.544-2.388 0-1.26.956-2.012 3.1-2.012 2.66 0 3.749.92 3.852 2.828h6.409c-.272-5.317-3.956-8.013-10.365-8.013-6.817 0-9.953 3.308-9.953 7.501s2.932 6.953 8.421 7.841l1.908.308c2.964.476 3.816.956 3.816 2.352s-1.092 2.18-3.408 2.18c-2.624 0-4.5-.476-4.568-3.34H37.17c0 4.976 3.512 8.521 10.841 8.521 6.169 0 10.461-2.324 10.694-7.436.773 4.472 4.303 7.3 9.316 7.3 3.813 0 7.182-1.697 8.56-4.812.337 3.143 3.029 4.812 6.441 4.812 2.624 0 4.5-.852 5.592-2.216a5.27 5.27 0 0 0 .444 1.808h6.308c-.476-.648-.716-1.808-.716-3.172v-9.305l-.004.004zm-26.762-1.092c1.808 0 3.068.956 3.476 2.864h-6.853c.408-2.044 1.704-2.864 3.376-2.864zm3.24 8.013c-.612 1.024-1.636 1.532-3.1 1.532-1.74 0-3.101-.956-3.512-2.964h12.334c-.154.44-.251.916-.283 1.432h-5.438zm17.385-1.364c0 2.488-1.5 3.308-3.34 3.308-1.396 0-2.248-.648-2.248-1.704s.68-1.604 2.012-1.74l2.012-.204c.784-.104 1.26-.272 1.568-.68v1.024l-.004-.004zm48.541-11.081c-2.456 0-4.16 1.092-5.353 2.556V1.973h-6.272v12.216c-.942-3.688-4.2-5.943-8.729-5.943-3.806 0-6.673 1.593-8.181 4.271V8.482c-.376-.068-.784-.104-1.26-.104-2.556 0-4.124 1.26-4.74 3.749V8.65h-6.137v17.59h6.273v-7.501c0-3.272 1.464-4.636 4.228-4.636h.942c-.33 1.01-.498 2.13-.498 3.34 0 5.557 3.613 9.205 9.373 9.205 4.418 0 7.687-2.137 8.729-5.678v5.27h6.272v-9.749c0-2.112 1.364-2.932 2.761-2.932 1.772 0 2.388.988 2.388 2.624v10.057h6.272V14.854c0-4.533-2.728-6.613-6.068-6.613v.004zm-17.418 10.773c-.172 1.84-1.328 2.592-2.932 2.592-1.977 0-3.068-1.228-3.068-4.16s1.091-4.192 3.068-4.192c1.464 0 2.524.68 2.796 2.248h5.932v3.512h-5.796zm36.475 0h6.137c-.272 4.704-3.885 7.637-9.069 7.637-5.761 0-9.377-3.648-9.377-9.205s3.613-9.205 9.377-9.205c5.045 0 8.521 2.796 8.965 7.261h-6.169c-.272-1.568-1.328-2.248-2.796-2.248-1.976 0-3.068 1.26-3.068 4.192s1.092 4.16 3.068 4.16c1.604 0 2.76-.748 2.932-2.592zm58.705-5.929V8.657h-3.308V3.34h-6.273v5.317h-5.556v-.476c0-1.056.544-1.636 2.044-1.636h1.364V1.973c-.852-.104-1.876-.172-2.796-.172-5.148 0-6.885 3-6.885 6.136v.716h-2.488v3.58c-.694-2.535-3.261-3.988-8.08-3.988-4.315 0-6.91 1.135-8.113 3.347V8.485c-.376-.068-.784-.104-1.26-.104-2.557 0-4.125 1.26-4.741 3.749V8.653h-6.136v17.59h6.272v-7.157c0-3.272 1.465-4.64 4.229-4.64h7.056c.172-1.5.888-1.876 2.625-1.876s2.216.612 2.216 1.396c0 .956-.681 1.328-2.113 1.464l-2.828.24c-5.148.444-7.021 2.352-7.021 5.488 0 3.58 2.829 5.489 6.477 5.489 2.624 0 4.5-.852 5.592-2.216.036.68.24 1.364.444 1.808h6.308c-.476-.648-.716-1.808-.716-3.172v-9.305c0-.233-.014-.462-.035-.68h2.323v13.157h6.273V13.082h5.556v7.773c0 3.92 1.944 5.557 6.921 5.557.888 0 1.808-.068 2.66-.172v-4.568h-1.296c-1.26 0-2.012-.104-2.012-1.568v-7.021h3.308l-.011.007zm-29.83 6.237c0 2.488-1.5 3.308-3.341 3.308-1.396 0-2.248-.648-2.248-1.704s.68-1.604 2.012-1.74l2.012-.204c.784-.104 1.26-.272 1.568-.68v1.024l-.003-.004zm-157.1 4.665c-4.328 4.329-10.773 5.242-15.996 2.742l-3.892 3.892c-1.829 1.83-4.794 1.83-6.623 0s-1.829-4.794 0-6.623l3.892-3.892c.67 1.403 1.582 2.717 2.742 3.877a14.05 14.05 0 0 0 3.877 2.742l9.352-9.352c1.829-1.829 1.829-4.794 0-6.623s-4.794-1.83-6.623 0l-9.352 9.352C2.764 14.883 3.677 8.439 8.002 4.11c5.488-5.488 14.385-5.488 19.874 0s5.488 14.385 0 19.874l.007.007z" fill="#fff"/></g><defs><clipPath id="A"><path fill="#fff" d="M0 0h214.813v32H0z"/></clipPath></defs></svg>